Coordinates
version=1
nRows=6
nColumns=34
inDegrees=yes

Units are S.I. units (second, meters, Newtons, ...)
If the header above contains a line with 'inDegrees', this indicates whether rotational values are in degrees (yes) or radians (no).

endheader
time	pelvis_tilt	pelvis_list	pelvis_rotation	pelvis_tx	pelvis_ty	pelvis_tz	hip_flexion_r	hip_adduction_r	hip_rotation_r	knee_angle_r	ankle_angle_r	subtalar_angle_r	mtp_angle_r	hip_flexion_l	hip_adduction_l	hip_rotation_l	knee_angle_l	ankle_angle_l	subtalar_angle_l	mtp_angle_l	lumbar_extension	lumbar_bending	lumbar_rotation	arm_flex_r	arm_add_r	arm_rot_r	elbow_flex_r	pro_sup_r	arm_flex_l	arm_add_l	arm_rot_l	elbow_flex_l	pro_sup_l
      2.50000000	    -47.93856759	     11.45313417	      1.34671560	     -6.29100913	      0.88676623	     -1.06468816	     81.31789870	     -3.17127145	      8.04298288	     43.79611551	      5.83679595	    -13.07317561	      0.00000000	     44.27025814	     12.04657768	      1.53447920	     23.36721798	      6.80589658	    -17.76838384	      0.00000000	     -8.53879729	     -5.60375480	    -13.22796650	    -23.78238231	    -18.48599997	    -28.53252950	      7.12269552	    101.67556681	     34.50763026	     -2.52807682	     25.51247558	    108.53469971	    117.10939663
      2.51666670	    -48.59745506	     11.57215048	      0.92615192	     -6.29092579	      0.88669421	     -1.06507036	     81.51007296	     -2.90181977	      8.01116458	     43.15237906	      5.80063246	    -12.61386042	      0.00000000	     44.82811624	     12.03254458	      1.77017759	     22.77518524	      3.27048885	    -21.50324978	      0.00000000	     -8.28485936	     -5.54774437	    -14.13585677	    -23.03564284	    -18.68277514	    -31.89796695	      8.14192522	    100.76929904	     34.07825351	     -2.91140692	     24.32208678	    110.10668587	    117.84955707
      2.53333330	    -49.26468703	     11.99703107	      0.29997540	     -6.29114748	      0.88639146	     -1.06461663	     82.00924480	     -2.43660225	      8.34030338	     42.75563649	      5.72276460	    -12.52823351	      0.00000000	     45.58964291	     12.05224398	      1.39066262	     22.66832049	     -0.12520844	    -24.88485812	      0.00000000	     -8.02239868	     -6.05888505	    -14.88706909	    -22.46729789	    -18.53966910	    -35.62975878	      9.36802840	    100.26439593	     33.17723463	     -3.54178745	     23.66896628	    111.35941535	    118.48801862
      2.55000000	    -49.82009566	     12.41016318	     -0.55979079	     -6.29189454	      0.88498969	     -1.06446209	     82.58763796	     -1.74180125	      8.71244754	     42.56753751	      5.56286389	    -12.32937330	      0.00000000	     46.27250104	     11.90503114	      0.52207666	     22.88724545	     -2.72641658	    -27.16837889	      0.00000000	     -7.92046130	     -6.42959226	    -15.33291894	    -22.08861276	    -18.17255397	    -38.69640075	     10.52342809	    100.07060548	     31.94107747	     -4.05546378	     23.18091035	    112.46533064	    118.83483470
      2.56666670	    -50.28703229	     12.16113447	     -1.37852026	     -6.29389058	      0.88190175	     -1.06556176	     83.15376351	     -1.03553090	      8.21971535	     42.57116094	      5.98284155	    -11.75606528	      0.00000000	     47.16459170	     11.43442864	      0.67234147	     24.18154225	     -5.32630458	    -31.27807830	      0.00000000	     -8.07110440	     -5.77751150	    -15.77568555	    -22.10645322	    -16.79194847	    -47.76844648	     14.29199607	     99.95922160	     31.23281851	     -4.48636111	     21.61631944	    113.33652428	    119.42542303
      2.58333330	    -50.15037497	     12.26236123	     -2.50215700	     -6.29597215	      0.87551812	     -1.06659207	     83.82140724	     -0.25129713	      7.91540902	     43.72218741	      6.06647523	    -11.63289023	      0.00000000	     47.57133093	     11.00919038	     -0.35296819	     26.23623953	     -4.80641539	    -31.81594790	      0.00000000	     -8.65049352	     -5.79004071	    -15.54552664	    -22.28016813	    -16.63989641	    -48.06243503	     14.29348046	    100.01821876	     31.37955748	     -4.85472106	     21.36218082	    113.29479042	    119.42110115
